<svg xmlns="http://www.w3.org/2000/svg" xmlns:xlink="http://www.w3.org/1999/xlink" xmlns:serif="http://www.serif.com/" width="100%" height="100%" viewBox="0 0 348 465" xml:space="preserve" style="fill-rule:evenodd;clip-rule:evenodd;stroke-linejoin:round;stroke-miterlimit:2;">    <g id="Plan-de-travail2" serif:id="Plan de travail2" transform="matrix(1,0,0,1,393.956364,228.221354)">        <rect x="-393.956" y="-228.221" width="347.817" height="464.483" style="fill:none;"></rect>        <g transform="matrix(1,0,0,1,5.908423,2.767921)">            <g transform="matrix(1,0,0,1,-673.333504,-578.405231)">                <path d="M373.98,475.879C373.98,475.879 392.497,479.895 403.662,479.002C414.827,478.109 437.157,474.982 448,476.769C458.843,478.555 510.399,476.769 516.205,475.429C522.011,474.089 522.458,449.08 523.797,441.487C525.137,433.895 532.283,394.148 539.428,370.924C546.574,347.701 563.098,391.468 568.011,407.992C572.924,424.516 593.021,469.623 595.7,475.876C598.38,482.128 596.147,499.099 593.914,508.924C591.681,518.749 586.768,539.74 584.089,549.565C581.409,559.39 582.302,571.895 571.137,583.5C559.972,595.105 534.962,609.41 532.283,612.982C529.603,616.555 545.234,687.565 542.108,690.244C538.982,692.924 517.545,692.924 503.7,689.798C489.856,686.672 481.37,692.031 466.632,689.798C451.895,687.565 451.448,693.371 439.836,692.031C428.225,690.691 370.613,691.584 362.574,689.798C354.535,688.011 368.291,642.479 370.806,631.275C373.321,620.071 373.421,621.583 359.465,612.651C345.509,603.719 314.247,580.272 304.198,561.85C294.15,543.428 298.057,526.122 301.965,495.418C305.873,464.714 332.111,400.515 339.368,388.234C346.625,375.952 357.79,373.161 361.14,427.87C364.489,482.578 373.98,475.879 373.98,475.879ZM411.695,557.377C411.695,557.377 433.704,564.808 450.282,563.379C466.86,561.95 473.434,558.52 481.151,552.232C488.868,545.944 492.012,543.371 487.153,537.94C482.294,532.51 465.145,521.934 450.568,521.363C435.99,520.791 431.131,519.076 421.699,535.368C412.267,551.66 407.694,555.09 411.695,557.377Z"></path>            </g>            <g transform="matrix(1,0,0,1,-673.956364,-582.221354)">                <path d="M448,535.348C448,535.348 435.489,538.42 435.339,546.512C435.19,554.605 438.037,555.953 445.754,556.778C453.472,557.602 460.74,552.357 459.991,546.887C459.241,541.417 458.937,536.322 448,535.348Z"></path>            </g>            <g transform="matrix(1,0,0,1,-673.956364,-582.221354)">                <path d="M393.537,457.717C393.537,457.717 401.54,459.717 407.543,458.288C413.545,456.859 416.403,453.715 415.26,450.571C414.116,447.427 394.109,394.835 390.107,392.834C386.106,390.834 369.528,393.12 371.814,397.408C374.101,401.695 393.537,457.717 393.537,457.717Z"></path>            </g>            <g transform="matrix(1,0,0,1,-673.956364,-582.221354)">                <path d="M425.264,439.71C425.264,439.71 429.837,435.422 429.265,421.703C428.694,407.983 424.406,374.256 427.264,372.255C430.123,370.254 448.259,370.826 450.481,376.542C452.703,382.259 453.118,425.418 450.481,437.137C447.844,448.856 447.558,448.57 439.555,445.712C431.552,442.854 425.264,439.71 425.264,439.71Z"></path>            </g>            <g transform="matrix(1,0,0,1,-673.956364,-582.221354)">                <path d="M465.565,443.711C465.565,443.711 471.853,462.462 476.998,458.803C482.143,455.144 505.866,426.848 505.58,420.559C505.295,414.271 502.436,386.225 497.006,392.102C491.575,397.979 465.565,443.711 465.565,443.711"></path>            </g>            <g transform="matrix(1.439585,0,0,1.439585,-894.306549,-460.585101)">                <g transform="matrix(72.22469,0,0,72.22469,569.017215,469.12235)">                </g>                <text x="367.296px" y="469.122px" style="font-family:'BerlinSansFBDemi-Bold', 'Berlin Sans FB Demi', sans-serif;font-weight:700;font-size:72.225px;">ARGO</text>            </g>        </g>    </g></svg>